<svg width="315" height="115" viewBox="0 0 315 115" version="1.1" xmlns="http://www.w3.org/2000/svg">
  <text x="5" y="108" font-size="16">tackar</text>
  <text x="69" y="108" font-size="16" font-weight="bold">all</text>
  <text x="115" y="108" font-size="16">som</text>
  <text x="161" y="108" font-size="16">hjälpte</text>
  <text x="234" y="108" font-size="16">oss</text>
  <text x="5" y="93" font-size="10">VERB</text>
  <text x="69" y="93" font-size="10">PRON</text>
  <text x="115" y="93" font-size="10">PRON</text>
  <text x="161" y="93" font-size="10">VERB</text>
  <text x="234" y="93" font-size="10">PRON</text>
  <line x1="20" y1="20" x2="20" y2="80" stroke="black"></line>
  <path d="M 20 80 17 74 23 74"></path>
  <text x="25" y="28" font-size="10">root</text>
  <path d="M 27 80 Q 27 63 44 63 L 70 63 Q 87 63 87 80" stroke="black" fill="none"></path>
  <line x1="87" y1="75" x2="87" y2="80" stroke="black"></line>
  <path d="M 87 80 84 74 90 74"></path>
  <text x="46" y="58" font-size="10">nsubj</text>
  <path d="M 128 80 Q 128 63 145 63 L 151 63 Q 168 63 168 80" stroke="black" fill="none"></path>
  <line x1="128" y1="75" x2="128" y2="80" stroke="black"></line>
  <path d="M 128 80 125 74 131 74"></path>
  <text x="137" y="58" font-size="10">nsubj</text>
  <path d="M 91 80 Q 91 47 124 47 L 146 47 Q 179 47 179 80" stroke="black" fill="none"></path>
  <line x1="179" y1="75" x2="179" y2="80" stroke="black"></line>
  <path d="M 179 80 176 74 182 74"></path>
  <text x="115" y="42" font-size="10">acl:relcl</text>
  <path d="M 183 80 Q 183 63 200 63 L 235 63 Q 252 63 252 80" stroke="black" fill="none"></path>
  <line x1="252" y1="75" x2="252" y2="80" stroke="black"></line>
  <path d="M 252 80 249 74 255 74"></path>
  <text x="211" y="58" font-size="10">obj</text>
</svg>